<mxfile host="drawio-plugin" modified="2021-05-07T20:48:17.721Z" agent="5.0 (Windows NT 6.2; Win64; x64) AppleWebKit/537.36 (KHTML, like Gecko) Chrome/87.0.4280.141 Safari/537.36" version="13.7.9" etag="JxoICfFo6DcLtoqHdCsz" type="embed"><diagram id="aBu1OaWnydBRsStGIwIj" name="Page-1"><mxGraphModel dx="1050" dy="383" grid="1" gridSize="10" guides="1" tooltips="1" connect="1" arrows="1" fold="1" page="1" pageScale="1" pageWidth="850" pageHeight="1100" background="#ffffff" math="0" shadow="0"><root><mxCell id="0"/><mxCell id="1" parent="0"/><mxCell id="2" value="Component" style="swimlane;fontStyle=3;align=center;verticalAlign=top;childLayout=stackLayout;horizontal=1;startSize=26;horizontalStack=0;resizeParent=1;resizeParentMax=0;resizeLast=0;collapsible=1;marginBottom=0;fontColor=#000000;strokeColor=#0000CC;strokeWidth=2;fillColor=#FFFFFF;" vertex="1" parent="1"><mxGeometry x="230" y="90" width="160" height="60" as="geometry"/></mxCell><mxCell id="3" value="" style="line;strokeWidth=2;align=left;verticalAlign=middle;spacingTop=-1;spacingLeft=3;spacingRight=3;rotatable=0;labelPosition=right;points=[];portConstraint=eastwest;fontColor=#000000;strokeColor=#0000CC;fillColor=#FFFFFF;" vertex="1" parent="2"><mxGeometry y="26" width="160" height="8" as="geometry"/></mxCell><mxCell id="4" value="+ operation()" style="text;align=left;verticalAlign=top;spacingLeft=4;spacingRight=4;overflow=hidden;rotatable=0;points=[[0,0.5],[1,0.5]];portConstraint=eastwest;fontColor=#000000;strokeColor=#0000CC;strokeWidth=2;fillColor=#FFFFFF;" vertex="1" parent="2"><mxGeometry y="34" width="160" height="26" as="geometry"/></mxCell><mxCell id="9" value="Extends" style="endArrow=block;endSize=16;endFill=0;html=1;labelBackgroundColor=none;strokeColor=#0000CC;strokeWidth=2;fontColor=#000000;exitX=0.5;exitY=0;exitDx=0;exitDy=0;fontSize=14;entryX=0.25;entryY=1;entryDx=0;entryDy=0;" edge="1" parent="1" source="5" target="2"><mxGeometry x="-0.3377" y="29" width="160" relative="1" as="geometry"><mxPoint x="160" y="328.99" as="sourcePoint"/><mxPoint x="260" y="100" as="targetPoint"/><mxPoint as="offset"/></mxGeometry></mxCell><mxCell id="5" value="ConcreteComponent" style="swimlane;fontStyle=1;align=center;verticalAlign=top;childLayout=stackLayout;horizontal=1;startSize=26;horizontalStack=0;resizeParent=1;resizeParentMax=0;resizeLast=0;collapsible=1;marginBottom=0;fontColor=#000000;strokeColor=#0000CC;strokeWidth=2;fillColor=#FFFFFF;" vertex="1" parent="1"><mxGeometry x="30" y="210.99" width="160" height="60" as="geometry"/></mxCell><mxCell id="6" value="" style="line;strokeWidth=2;align=left;verticalAlign=middle;spacingTop=-1;spacingLeft=3;spacingRight=3;rotatable=0;labelPosition=right;points=[];portConstraint=eastwest;fontColor=#000000;strokeColor=#0000CC;fillColor=#FFFFFF;" vertex="1" parent="5"><mxGeometry y="26" width="160" height="8" as="geometry"/></mxCell><mxCell id="7" value="+ operation()" style="text;align=left;verticalAlign=top;spacingLeft=4;spacingRight=4;overflow=hidden;rotatable=0;points=[[0,0.5],[1,0.5]];portConstraint=eastwest;fontColor=#000000;strokeColor=#0000CC;strokeWidth=2;fillColor=#FFFFFF;" vertex="1" parent="5"><mxGeometry y="34" width="160" height="26" as="geometry"/></mxCell><mxCell id="11" value="Decorator" style="swimlane;fontStyle=1;align=center;verticalAlign=top;childLayout=stackLayout;horizontal=1;startSize=26;horizontalStack=0;resizeParent=1;resizeParentMax=0;resizeLast=0;collapsible=1;marginBottom=0;fontColor=#000000;strokeColor=#0000CC;strokeWidth=2;fillColor=#FFFFFF;" vertex="1" parent="1"><mxGeometry x="490" y="210.99" width="200" height="86" as="geometry"/></mxCell><mxCell id="14" value="+ component: ConcreteComponent" style="text;align=left;verticalAlign=top;spacingLeft=4;spacingRight=4;overflow=hidden;rotatable=0;points=[[0,0.5],[1,0.5]];portConstraint=eastwest;fontColor=#000000;strokeColor=#0000CC;strokeWidth=2;fillColor=#FFFFFF;" vertex="1" parent="11"><mxGeometry y="26" width="200" height="26" as="geometry"/></mxCell><mxCell id="12" value="" style="line;strokeWidth=2;align=left;verticalAlign=middle;spacingTop=-1;spacingLeft=3;spacingRight=3;rotatable=0;labelPosition=right;points=[];portConstraint=eastwest;fontColor=#000000;strokeColor=#0000CC;fillColor=#FFFFFF;" vertex="1" parent="11"><mxGeometry y="52" width="200" height="8" as="geometry"/></mxCell><mxCell id="13" value="+ operation()" style="text;align=left;verticalAlign=top;spacingLeft=4;spacingRight=4;overflow=hidden;rotatable=0;points=[[0,0.5],[1,0.5]];portConstraint=eastwest;fontColor=#000000;strokeColor=#0000CC;strokeWidth=2;fillColor=#FFFFFF;" vertex="1" parent="11"><mxGeometry y="60" width="200" height="26" as="geometry"/></mxCell><mxCell id="15" value="1" style="endArrow=open;html=1;endSize=12;startArrow=diamondThin;startSize=14;startFill=1;edgeStyle=orthogonalEdgeStyle;align=left;verticalAlign=bottom;labelBackgroundColor=none;strokeColor=#0000CC;strokeWidth=2;fontSize=18;fontColor=#000000;exitX=0;exitY=0.5;exitDx=0;exitDy=0;entryX=1;entryY=0.25;entryDx=0;entryDy=0;" edge="1" parent="1" source="11" target="5"><mxGeometry x="-0.2499" y="-90" relative="1" as="geometry"><mxPoint x="370" y="260" as="sourcePoint"/><mxPoint x="480" y="90" as="targetPoint"/><Array as="points"><mxPoint x="380" y="254"/><mxPoint x="380" y="226"/></Array><mxPoint as="offset"/></mxGeometry></mxCell><mxCell id="16" value="Extends" style="endArrow=block;endSize=16;endFill=0;html=1;labelBackgroundColor=none;strokeColor=#0000CC;strokeWidth=2;fontColor=#000000;exitX=0.5;exitY=0;exitDx=0;exitDy=0;fontSize=14;entryX=0.75;entryY=1;entryDx=0;entryDy=0;" edge="1" parent="1" source="11" target="2"><mxGeometry x="-0.2922" y="-20" width="160" relative="1" as="geometry"><mxPoint x="300" y="225.99" as="sourcePoint"/><mxPoint x="460" y="165" as="targetPoint"/><mxPoint as="offset"/></mxGeometry></mxCell><mxCell id="21" value="ConcreteDecoratorB" style="swimlane;fontStyle=1;align=center;verticalAlign=top;childLayout=stackLayout;horizontal=1;startSize=26;horizontalStack=0;resizeParent=1;resizeParentMax=0;resizeLast=0;collapsible=1;marginBottom=0;fontColor=#000000;strokeColor=#0000CC;strokeWidth=2;fillColor=#FFFFFF;" vertex="1" parent="1"><mxGeometry x="640" y="370" width="200" height="86" as="geometry"/></mxCell><mxCell id="22" value="..." style="text;align=left;verticalAlign=top;spacingLeft=4;spacingRight=4;overflow=hidden;rotatable=0;points=[[0,0.5],[1,0.5]];portConstraint=eastwest;fontColor=#000000;strokeColor=#0000CC;strokeWidth=2;fillColor=#FFFFFF;" vertex="1" parent="21"><mxGeometry y="26" width="200" height="26" as="geometry"/></mxCell><mxCell id="23" value="" style="line;strokeWidth=2;align=left;verticalAlign=middle;spacingTop=-1;spacingLeft=3;spacingRight=3;rotatable=0;labelPosition=right;points=[];portConstraint=eastwest;fontColor=#000000;strokeColor=#0000CC;fillColor=#FFFFFF;" vertex="1" parent="21"><mxGeometry y="52" width="200" height="8" as="geometry"/></mxCell><mxCell id="24" value="+ operation()" style="text;align=left;verticalAlign=top;spacingLeft=4;spacingRight=4;overflow=hidden;rotatable=0;points=[[0,0.5],[1,0.5]];portConstraint=eastwest;fontColor=#000000;strokeColor=#0000CC;strokeWidth=2;fillColor=#FFFFFF;" vertex="1" parent="21"><mxGeometry y="60" width="200" height="26" as="geometry"/></mxCell><mxCell id="17" value="ConcreteDecoratorA" style="swimlane;fontStyle=1;align=center;verticalAlign=top;childLayout=stackLayout;horizontal=1;startSize=26;horizontalStack=0;resizeParent=1;resizeParentMax=0;resizeLast=0;collapsible=1;marginBottom=0;fontColor=#000000;strokeColor=#0000CC;strokeWidth=2;fillColor=#FFFFFF;" vertex="1" parent="1"><mxGeometry x="350" y="370" width="200" height="86" as="geometry"/></mxCell><mxCell id="18" value="..." style="text;align=left;verticalAlign=top;spacingLeft=4;spacingRight=4;overflow=hidden;rotatable=0;points=[[0,0.5],[1,0.5]];portConstraint=eastwest;fontColor=#000000;strokeColor=#0000CC;strokeWidth=2;fillColor=#FFFFFF;" vertex="1" parent="17"><mxGeometry y="26" width="200" height="26" as="geometry"/></mxCell><mxCell id="19" value="" style="line;strokeWidth=2;align=left;verticalAlign=middle;spacingTop=-1;spacingLeft=3;spacingRight=3;rotatable=0;labelPosition=right;points=[];portConstraint=eastwest;fontColor=#000000;strokeColor=#0000CC;fillColor=#FFFFFF;" vertex="1" parent="17"><mxGeometry y="52" width="200" height="8" as="geometry"/></mxCell><mxCell id="20" value="+ operation()" style="text;align=left;verticalAlign=top;spacingLeft=4;spacingRight=4;overflow=hidden;rotatable=0;points=[[0,0.5],[1,0.5]];portConstraint=eastwest;fontColor=#000000;strokeColor=#0000CC;strokeWidth=2;fillColor=#FFFFFF;" vertex="1" parent="17"><mxGeometry y="60" width="200" height="26" as="geometry"/></mxCell><mxCell id="25" value="Extends" style="endArrow=block;endSize=16;endFill=0;html=1;labelBackgroundColor=none;strokeColor=#0000CC;strokeWidth=2;fontColor=#000000;exitX=0.5;exitY=0;exitDx=0;exitDy=0;fontSize=14;entryX=0.5;entryY=1;entryDx=0;entryDy=0;" edge="1" parent="1" source="17" target="11"><mxGeometry x="0.128" y="-24" width="160" relative="1" as="geometry"><mxPoint x="600" y="220.99" as="sourcePoint"/><mxPoint x="360" y="160" as="targetPoint"/><mxPoint as="offset"/></mxGeometry></mxCell><mxCell id="26" value="Extends" style="endArrow=block;endSize=16;endFill=0;html=1;labelBackgroundColor=none;strokeColor=#0000CC;strokeWidth=2;fontColor=#000000;exitX=0.5;exitY=0;exitDx=0;exitDy=0;fontSize=14;entryX=0.75;entryY=1;entryDx=0;entryDy=0;" edge="1" parent="1" source="21" target="11"><mxGeometry x="-0.2922" y="-20" width="160" relative="1" as="geometry"><mxPoint x="850" y="380.99" as="sourcePoint"/><mxPoint x="610" y="320" as="targetPoint"/><mxPoint as="offset"/></mxGeometry></mxCell></root></mxGraphModel></diagram></mxfile>